<svg xmlns="http://www.w3.org/2000/svg" viewBox="0 0 52 30"><path fill="#ED0000" fill-rule="evenodd" d="M48.41 6.5a6.87 6.87 0 0 0-4.44-1.57c-2.24.11-4.4.8-6.28 1.98a24.47 24.47 0 0 0-6.27 5.9 38.2 38.2 0 0 0-10.21-9.84A19.34 19.34 0 0 0 11.78 0c-2.4-.03-4.72.77-6.55 2.26C1.65 5.56 0 10.22 0 15.01c0 5.54 1.97 10.1 5.23 12.73A10.13 10.13 0 0 0 11.78 30a19.15 19.15 0 0 0 9.37-2.97 38.04 38.04 0 0 0 10.22-9.81 24.68 24.68 0 0 0 6.26 5.92 12.96 12.96 0 0 0 6.34 1.93 6.97 6.97 0 0 0 4.5-1.55c2.4-2.2 3.53-5.3 3.53-8.51s-1.16-6.33-3.59-8.51zM19.73 24.8a16.25 16.25 0 0 1-7.95 2.56 7.45 7.45 0 0 1-4.81-1.65c-3.12-2.53-4.23-6.96-4.23-10.68 0-3.72 1.11-8.2 4.23-10.69a7.45 7.45 0 0 1 4.81-1.65 16.8 16.8 0 0 1 7.95 2.56 37.1 37.1 0 0 1 9.96 9.8 40.13 40.13 0 0 1-9.96 9.75zM39.06 9.15a10.13 10.13 0 0 1 4.9-1.58c1.02-.03 2 .3 2.79.94a9.06 9.06 0 0 1 2.55 6.5c0 2.4-.82 4.75-2.55 6.48-.78.63-1.77.97-2.78.94a9.7 9.7 0 0 1-4.86-1.58 25.3 25.3 0 0 1-6.04-5.86 22.5 22.5 0 0 1 5.99-5.84z"/></svg>