<svg width="14" height="14" viewBox="0 0 14 14" xmlns="http://www.w3.org/2000/svg">
    <g fill="#FFF" fill-rule="nonzero">
        <path d="M5.337.003c.945-.029 1.906.147 2.758.572a5.028 5.028 0 0 1 1.818 1.533c.53.72.867 1.576 1.017 2.46a6.697 6.697 0 0 1-.13 2.904 5.762 5.762 0 0 1-1.09 2.115c-.42.514-.93.943-1.506 1.265a5.433 5.433 0 0 1-2.671.68 5.496 5.496 0 0 1-2.652-.654 5.325 5.325 0 0 1-1.873-1.71A5.947 5.947 0 0 1 .055 6.61a6.805 6.805 0 0 1 .293-3.022 5.49 5.49 0 0 1 .863-1.604c.391-.5.871-.92 1.416-1.24.82-.482 1.766-.719 2.71-.742m-.069 1.656a2.998 2.998 0 0 0-1.766.75c-.64.565-1.048 1.364-1.24 2.198a5.376 5.376 0 0 0 .142 2.87c.248.739.688 1.433 1.331 1.876.726.506 1.663.636 2.514.456a2.965 2.965 0 0 0 1.696-1.062c.555-.692.842-1.574.927-2.455.097-1-.086-2.04-.576-2.92-.342-.614-.854-1.145-1.49-1.442a3.015 3.015 0 0 0-1.538-.27zM12.306 9.033c.39-.003.803.074 1.11.335.268.225.402.577.426.923.034.344-.048.691-.196 1-.214.447-.533.83-.866 1.19-.238.254-.483.502-.734.743H14V14h-3.197v-.823c.566-.538 1.154-1.063 1.624-1.695.177-.243.343-.503.422-.797.05-.185.044-.397-.067-.559-.134-.203-.38-.297-.612-.312-.424-.023-.83.162-1.18.39l-.077-.82c.433-.222.909-.341 1.393-.35z"/>
    </g>
</svg>
